# xmcd
#
# Track frame offsets:
#	150
#	14911
#	27175
#	41420
#	52947
#	65424
#	76985
#	97197
#	107941
#	125126
#	137027
#	158822
#	175450
#	191530
#	203737
#	217164
#	231426
#	244596
#	252909
#	266022
#	281705
#	291997
#	302854
#	320076
#
# Disc length: 4438 seconds
# Revision: 1
# Processed by: cddbd v1.5.2PL0 Copyright (c) Steve Scherf et al.
# Submitted via: dBpowerAMP V12.0
#
DISCID=79115418
DTITLE=Various Artist - Massive Hits Country 2
DYEAR=2013
DGENRE=Country
TTITLE0=Glen Campbell - Rhinestone Cowboy
TTITLE1=Billie Jo Spears - What I've Got In Mind
TTITLE2=Dolly Parton/Asleep at the Wheel - Billy Dale
TTITLE3=Crystal Gayle - Never Ending Song of Love
TTITLE4=Faron Young - Sweet Dreams
TTITLE5=Slim Whitman - Happy Anniversary
TTITLE6=Steve Wariner - Two Teardrops
TTITLE7=Eddie Rabbitt/Lacy J. Dalton - Bye Bye Love
TTITLE8=Suzy Bogguss - All My Loving
TTITLE9=Mike Post/Wanda Jackson - Jackson
TTITLE10=Charlie Daniels - Tennessee Two Step
TTITLE11=Eddie Rabbitt - Tennessee Born and Bred
TTITLE12=Wild Rose - Hillbilly Twist
TTITLE13=Pirates of the Mississippi - The Wild Side of Life
TTITLE14=Mel McDaniel - Baby's Got Her Blue Jeans On
TTITLE15=Chris LeDoux/Charlie Daniels - Cowboys Like a Little Rock and Roll
TTITLE16=Trace Adkins - See Jane Run
TTITLE17=Nitty Gritty Dirt Band, The - Hey Good Lookin'
TTITLE18=Tanya Tucker - San Antonio Stroll
TTITLE19=Juice Newton - It's a Heartache
TTITLE20=Tennessee Ernie Ford - King of the Road
TTITLE21=Willie Nelson - Hello Walls
TTITLE22=Don Williams - Old Coyote Town
TTITLE23=Bobbie Gentry - I'll Never Fall In Love Again
EXTD=
EXTT0=
EXTT1=
EXTT2=
EXTT3=
EXTT4=
EXTT5=
EXTT6=
EXTT7=
EXTT8=
EXTT9=
EXTT10=
EXTT11=
EXTT12=
EXTT13=
EXTT14=
EXTT15=
EXTT16=
EXTT17=
EXTT18=
EXTT19=
EXTT20=
EXTT21=
EXTT22=
EXTT23=
PLAYORDER=
